<svg xmlns="http://www.w3.org/2000/svg" xml:space="preserve" width="32" height="32" viewBox="0 0 365.483 365.483"><path d="M214.942 200.5h-64.401a7.502 7.502 0 0 1-5.598-2.507l-16.84-18.875a7.502 7.502 0 0 1-1.902-4.993v-64.829h-9.494a7.5 7.5 0 0 1-7.5-7.5v-35.39c0-4.143 3.357-7.5 7.5-7.5h55.78c4.143 0 7.5 3.357 7.5 7.5v35.39a7.5 7.5 0 0 1-7.5 7.5h-5.432v42.511h31.371v-42.511h-5.43a7.5 7.5 0 0 1-7.5-7.5v-35.39c0-4.143 3.357-7.5 7.5-7.5h55.777c4.143 0 7.5 3.357 7.5 7.5v35.39a7.5 7.5 0 0 1-7.5 7.5h-9.492v64.829a7.5 7.5 0 0 1-1.904 4.993l-16.84 18.875a7.494 7.494 0 0 1-5.595 2.507zm-61.041-15h57.682l12.699-14.234v-69.47c0-4.144 3.357-7.5 7.5-7.5h9.492v-20.39h-40.777v20.39h5.43c4.143 0 7.5 3.356 7.5 7.5v57.511c0 4.143-3.357 7.5-7.5 7.5h-46.371a7.499 7.499 0 0 1-7.5-7.5v-57.511c0-4.144 3.357-7.5 7.5-7.5h5.432v-20.39h-40.779v20.39h9.494c4.143 0 7.5 3.356 7.5 7.5v69.47l12.698 14.234z"/><path d="M342.105 0H23.378a7.5 7.5 0 0 0-7.5 7.5v24.324a7.5 7.5 0 0 0 7.5 7.5h17.22L175.829 360.89a7.5 7.5 0 0 0 13.826 0l135.23-321.565h17.219c4.143 0 7.5-3.357 7.5-7.5V7.5a7.499 7.499 0 0 0-7.499-7.5zM182.741 338.636l-33.2-78.945 33.116-19.941 33.486 19.463-33.402 79.423zm39.264-93.367-35.646-20.718a7.495 7.495 0 0 0-7.639.06l-35.053 21.109L56.869 39.324h251.745l-86.609 205.945zm112.6-220.945H30.878V15h303.727v9.324z"/></svg>