<svg xmlns="http://www.w3.org/2000/svg" xml:space="preserve" width="32" height="32" viewBox="0 0 229.997 229.997"><path d="M99.291.012a14.999 14.999 0 0 0-12.283 7.484 15.002 15.002 0 0 0-1.143 2.5H58.649a10.002 10.002 0 0 0-3.65-3.66c-4.783-2.761-10.899-1.123-13.66 3.66a10.001 10.001 0 0 0-.074 9.842L20.161 55.01a10 10 0 0 0-8.822 4.986c-2.761 4.783-1.123 10.899 3.66 13.66a9.991 9.991 0 0 0 5.162 1.328l18.293 30.486c-2.153 2.599-3.455 5.922-3.455 9.525 0 3.603 1.301 6.929 3.453 9.527l-15.465 25.775a14.81 14.81 0 0 0-2.988-.303c-8.225 0-15 6.775-15 15s6.775 15 15 15c1.021 0 2.021-.104 2.986-.303l15.469 25.777c-2.153 2.599-3.455 5.922-3.455 9.526 0 8.225 6.775 15 15 15 6.473 0 12.034-4.203 14.115-10h21.771c2.081 5.797 7.64 10 14.113 10 8.225 0 15-6.775 15-15 0-3.604-1.3-6.928-3.453-9.528l15.467-25.775a14.79 14.79 0 0 0 2.986.303c6.473 0 12.034-4.203 14.115-10h27.24a10.003 10.003 0 0 0 8.645 5c5.523 0 10-4.477 10-10a10.005 10.005 0 0 0-1.264-4.844l18.275-30.457c.984.2 1.985.301 2.988.301 8.284 0 15-6.716 15-15s-6.716-15-15-15c-1.002.006-2 .112-2.98.316L188.74 69.845a10.008 10.008 0 0 0 1.258-4.852c0-5.523-4.477-10-10-10a10 10 0 0 0-8.648 5h-32.705a10 10 0 0 0-8.646-5l-.166.01-18.279-30.465a15.02 15.02 0 0 0 1.436-2.041c4.142-7.174 1.684-16.348-5.49-20.49A15 15 0 0 0 99.293.013l-.002-.001zM58.658 19.997h27.205a15 15 0 0 0 6.635 7.99 14.996 14.996 0 0 0 10.479 1.691l18.281 30.467a10.01 10.01 0 0 0-1.26 4.852 9.998 9.998 0 0 0 1.264 4.842L102.987 100.3a14.81 14.81 0 0 0-2.988-.303c-6.473 0-12.032 4.204-14.113 10H64.113c-2.082-5.796-7.643-10-14.115-10-1.021 0-2.02.106-2.986.305L28.738 69.848a10.002 10.002 0 0 0 0-9.695l21.102-35.17a10 10 0 0 0 8.822-4.986h-.004zm79.991 50h32.705a10.003 10.003 0 0 0 8.645 5l.166-.01 18.273 30.457a15.001 15.001 0 0 0-3.439 9.549 15.003 15.003 0 0 0 3.443 9.545L180.162 155a9.016 9.016 0 0 0-.164-.01 10 10 0 0 0-8.648 5h-27.236c-2.082-5.796-7.643-10-14.115-10a14.81 14.81 0 0 0-2.988.305l-15.465-25.775a14.904 14.904 0 0 0 3.453-9.529c0-3.604-1.301-6.928-3.455-9.527l18.291-30.48.164.01a10 10 0 0 0 8.65-5v.003zm-88.651 40c2.821 0 5 2.179 5 5s-2.179 5-5 5-5-2.179-5-5 2.18-5 5-5zm50 0c2.821 0 5 2.179 5 5s-2.179 5-5 5-5-2.179-5-5 2.18-5 5-5zm-35.885 10h21.771c2.081 5.797 7.64 10 14.113 10a14.81 14.81 0 0 0 2.988-.303l15.467 25.777c-2.153 2.599-3.455 5.922-3.455 9.525 0 3.603 1.301 6.929 3.453 9.527l-15.465 25.775a14.81 14.81 0 0 0-2.988-.303c-6.473 0-12.032 4.204-14.113 10H64.113c-2.082-5.796-7.643-10-14.115-10a14.81 14.81 0 0 0-2.988.305l-15.465-25.775c2.154-2.599 3.453-5.925 3.453-9.529s-1.3-6.928-3.453-9.527l15.467-25.775a14.79 14.79 0 0 0 2.986.303c6.474 0 12.034-4.203 14.115-10zm-44.115 40c2.821 0 5 2.179 5 5s-2.179 5-5 5-5-2.179-5-5 2.18-5 5-5zm110 0c2.821 0 5 2.179 5 5s-2.179 5-5 5-5-2.179-5-5 2.18-5 5-5zm-80 50c2.821 0 5 2.179 5 5s-2.179 5-5 5-5-2.179-5-5 2.18-5 5-5zm50 0c2.821 0 5 2.179 5 5s-2.179 5-5 5-5-2.179-5-5 2.18-5 5-5z"/></svg>