<svg xmlns="http://www.w3.org/2000/svg" xml:space="preserve" width="32" height="32" style="fill-rule:evenodd;clip-rule:evenodd;stroke-linejoin:round;stroke-miterlimit:1.41421" viewBox="0 0 48 48"><path d="M3.562 35.226V12.297a3.028 3.028 0 0 1 3.026-3.026h34.649a3.03 3.03 0 0 1 3.028 3.026v22.929a3.028 3.028 0 0 1-3.028 3.026H6.588a3.028 3.028 0 0 1-3.026-3.026Zm38.789 0V12.297c0-.61-.498-1.11-1.114-1.11H6.588c-.612 0-1.11.498-1.11 1.11v22.929c0 .613.498 1.11 1.11 1.11h34.649c.614 0 1.114-.497 1.114-1.11Z"/><path d="M6.924 13.111a.92.92 0 1 1 .919.917.921.921 0 0 1-.919-.917Zm2.601 0a.92.92 0 0 1 .917-.92.92.92 0 0 1 .919.92.92.92 0 0 1-.919.917.92.92 0 0 1-.917-.917Zm2.598 0a.92.92 0 0 1 .917-.92c.506 0 .919.413.919.92a.921.921 0 0 1-.919.917.92.92 0 0 1-.917-.917Zm-2.091 20.728-.002-.779c.187.076.388.117.603.117.197 0 .386-.035.558-.1v.762h-1.159Zm6.649 0v-1.16h1.159v1.16h-1.159Zm6.652 0v-1.16h1.16v1.16h-1.16Zm6.65 0v-1.16h1.159v1.16h-1.159Zm6.652 0v-1.16h1.16v1.16h-1.16Zm-19.954-1.852V30.83h1.159v1.157h-1.159Zm6.652 0V30.83h1.16v1.157h-1.16Zm6.65 0V30.83h1.159v1.157h-1.159Zm6.652 0V30.83h1.16v1.157h-1.16Zm-19.954-1.849v-1.159h1.159v1.159h-1.159Zm6.652 0v-1.159h1.16v1.159h-1.16Zm6.65 0-.002-1.134a1.611 1.611 0 0 0 1.161.032v1.102h-1.159Zm6.652 0v-1.159h1.16v1.159h-1.16Zm-26.605-.032.002-1.127h1.159v1.112-.004a1.558 1.558 0 0 0-1.161.019Zm.004-1.917v-1.158h1.159v1.158h-1.159Zm6.649 0v-1.158h1.16v1.158h-1.16Zm6.653 0v-1.158h1.159v1.158h-1.159Zm13.301 0v-1.158h1.16v1.158h-1.16Zm-26.603-1.85V25.18h1.157v1.159h-1.157Zm6.649 0-.002-.501a1.605 1.605 0 0 0 1.159.108v.393h-1.157Zm6.653 0V25.18h1.157v1.159h-1.157Zm13.301 0V25.18h1.158v1.159h-1.158Zm-6.654-.276.002-.883h1.157v.86-.007a1.591 1.591 0 0 0-1.159.03Zm-19.949-1.574v-1.158h1.157v1.158h-1.157Zm13.302 0-.003-.69a1.588 1.588 0 0 0 1.16 0v.69h-1.157Zm6.649 0v-1.158h1.157v1.158h-1.157Zm6.652 0v-1.158h1.158v1.158h-1.158Zm-26.603-1.852v-1.158h1.157v1.158h-1.157Zm6.649 0v-1.158h1.157v1.158h-1.157Zm13.302 0v-1.158h1.157v1.158h-1.157Zm6.652 0v-1.158h1.158v1.158h-1.158Zm-26.605-1.849v-1.16h1.159v1.16h-1.159Zm6.649 0v-1.16h1.159v1.16h-1.159Zm6.652 0v-1.16h1.16v1.16h-.109a1.555 1.555 0 0 0-.942 0h-.109Zm6.65 0v-1.16h1.159v1.16h-1.159Zm-19.951-1.851v-1.158h1.159v1.158h-1.159Zm6.649 0v-1.158h1.159v1.158h-1.159Zm6.652 0v-1.158h1.16v1.158h-1.16Zm6.65 0v-1.158h1.159v1.158h-1.159Zm7.223-.695c-.203 0-.396.039-.573.107l.002.004v-.574h1.16v.581-.003a1.577 1.577 0 0 0-.589-.115Zm-27.174-1.155v-1.159h1.159v1.159h-1.159Zm6.649 0v-1.159h1.159v1.159h-1.159Zm6.652 0v-1.159h1.16v1.159h-1.16Zm6.65 0v-1.159h1.159v1.159h-1.159Zm6.652 0v-1.159h1.16v1.159h-1.16Z"/><path d="M8.506 31.581a2.13 2.13 0 0 1 2.734-2.039l4.158-4.403a2.13 2.13 0 0 1 2.003-2.855c.591 0 1.127.245 1.512.636l2.897-.934a2.134 2.134 0 0 1 2.104-1.803 2.132 2.132 0 0 1 2.079 2.584l3.586 2.915-.009-.008a2.119 2.119 0 0 1 1.641-.179l4.015-4.869a2.13 2.13 0 0 1 1.98-2.915 2.13 2.13 0 0 1 2.127 2.127 2.13 2.13 0 0 1-2.671 2.061L32.6 26.823l.007-.006a2.125 2.125 0 0 1-2.003 2.845 2.128 2.128 0 0 1-2.111-2.396l.009.006-3.722-3.017a2.125 2.125 0 0 1-2.379-.445l-2.903.936a2.124 2.124 0 0 1-2.708 1.706l-4.163 4.412.007-.007a2.129 2.129 0 0 1-2.001 2.851 2.127 2.127 0 0 1-2.127-2.127Zm3.192 0c0-.583-.482-1.065-1.065-1.065a1.07 1.07 0 0 0-1.064 1.065c0 .585.479 1.064 1.064 1.064a1.07 1.07 0 0 0 1.065-1.064Zm19.971-4.048a1.07 1.07 0 0 0-1.065-1.063c-.585 0-1.064.48-1.064 1.063 0 .585.479 1.065 1.064 1.065a1.07 1.07 0 0 0 1.065-1.065Zm-.464-2.029.006-.009-.006.009Zm-12.741-1.092c0-.584-.48-1.064-1.063-1.064-.586 0-1.065.48-1.065 1.064 0 .585.479 1.064 1.065 1.064.583 0 1.063-.479 1.063-1.064Zm1.03.334h.004-.004Zm5.484-2.434a1.07 1.07 0 0 0-1.064-1.065 1.07 1.07 0 0 0-1.064 1.065c0 .585.479 1.063 1.064 1.063.583 0 1.064-.478 1.064-1.063Zm13.291-2.474a1.07 1.07 0 0 0-1.063-1.063c-.586 0-1.065.481-1.065 1.063 0 .586.479 1.065 1.065 1.065.582 0 1.063-.479 1.063-1.065Z"/></svg>