<svg xmlns="http://www.w3.org/2000/svg" xml:space="preserve" width="32" height="32"><path d="M29 7h-9.38A3.972 3.972 0 0 0 21 4a4 4 0 0 0-8 0c0 1.202.541 2.267 1.38 3H4a2 2 0 1 0 0 4h8v8.015l-8.72 8.72c-1.575 1.575-.458 4.267 1.767 4.267h.006a2.499 2.499 0 0 0 1.762-.732l9.212-9.212h1L20 25.042V29.5a2.5 2.5 0 1 0 5 0V23l-4-4.018V11h8a2 2 0 1 0 0-4zM14 4c0-1.654 1.346-3 3-3s3 1.346 3 3-1.346 3-3 3-3-1.346-3-3zm10 25.5c0 .827-.673 1.5-1.5 1.5s-1.5-.673-1.5-1.5v-4.871l-3.557-3.571h-1.83l-9.505 9.505a1.494 1.494 0 0 1-1.061.439 1.458 1.458 0 0 1-1.385-.926 1.457 1.457 0 0 1 .325-1.634L13.429 19h6.178L24 23.413V29.5zM29 10h-9v8h-7v-8H4c-.551 0-1-.449-1-1s.449-1 1-1h25c.551 0 1 .449 1 1s-.449 1-1 1z" style="fill:#0b1719"/></svg>